<svg width="121" height="120" viewBox="0 0 121 120" fill="none" xmlns="http://www.w3.org/2000/svg">
<path d="M117.053 115.4C116.593 116.046 115.986 116.574 115.282 116.939C114.577 117.304 113.796 117.496 113.003 117.5H8.00313C7.20987 117.496 6.42888 117.304 5.72466 116.939C5.02044 116.574 4.41321 116.046 3.95312 115.4C23.7031 71.475 19.6031 80.6 25.5031 67.5H95.5031C101.853 81.625 97.1531 71.2 117.053 115.4Z" fill="#E73C18"/>
<path d="M25.5003 35V67.5C19.1503 81.625 23.8503 71.2 3.95026 115.4C3.32324 114.564 2.98934 113.545 3.00026 112.5V77.5L25.5003 35Z" fill="url(#paint0_linear_8441_14745)"/>
<path d="M118 77.5V112.5C118.011 113.545 117.677 114.564 117.05 115.4C97.3 71.475 101.4 80.6 95.5 67.5V35L118 77.5Z" fill="url(#paint1_linear_8441_14745)"/>
<path d="M118 77.5002V112.5C118 113.826 117.473 115.098 116.536 116.036C115.598 116.973 114.326 117.5 113 117.5H8C6.67392 117.5 5.40215 116.973 4.46447 116.036C3.52678 115.098 3 113.826 3 112.5V77.5002H45.725C46.3279 77.4933 46.913 77.7047 47.3724 78.0952C47.8318 78.4857 48.1346 79.029 48.225 79.6252C48.6105 81.887 49.6111 83.9992 51.1172 85.7302C52.6233 87.4612 54.5768 88.7443 56.7637 89.4388C58.9505 90.1333 61.2864 90.2125 63.5153 89.6677C65.7442 89.1229 67.7801 87.9752 69.4 86.3502C71.2176 84.5157 72.4303 82.169 72.875 79.6252C72.9654 79.029 73.2682 78.4857 73.7276 78.0952C74.187 77.7047 74.7721 77.4933 75.375 77.5002H118Z" fill="url(#paint2_linear_8441_14745)"/>
<path d="M25.5 35H95.5V67.5H25.5V35Z" fill="url(#paint3_linear_8441_14745)"/>
<path d="M25.5 35H95.5V67.5H25.5V35Z" fill="url(#paint4_linear_8441_14745)"/>
<path d="M83 25.0007C83.0057 20.7172 81.7886 16.5211 79.4916 12.9055C77.1947 9.28997 73.9134 6.40519 70.0334 4.59024C66.1534 2.77529 61.836 2.1056 57.5885 2.65988C53.3411 3.21416 49.3401 4.96937 46.0558 7.71923C42.7715 10.4691 40.3404 14.0993 39.0482 18.1833C37.756 22.2672 37.6564 26.6351 38.7612 30.7737C39.866 34.9123 42.1291 38.6495 45.2847 41.5462C48.4403 44.4428 52.3572 46.3785 56.575 47.1257L59.375 52.7757C59.4837 52.9796 59.6458 53.1501 59.844 53.269C60.0422 53.3879 60.2689 53.4507 60.5 53.4507C60.7311 53.4507 60.9578 53.3879 61.156 53.269C61.3541 53.1501 61.5162 52.9796 61.625 52.7757L64.425 47.1257C69.6255 46.2044 74.3362 43.483 77.7322 39.438C81.1282 35.393 82.9929 30.2822 83 25.0007Z" fill="url(#paint5_linear_8441_14745)"/>
<path d="M64.0274 25.0005L69.7774 19.2755C70.2482 18.8047 70.5126 18.1662 70.5126 17.5005C70.5126 16.8347 70.2482 16.1962 69.7774 15.7255C69.3067 15.2547 68.6682 14.9902 68.0024 14.9902C67.3367 14.9902 66.6982 15.2547 66.2274 15.7255L60.5024 21.4755L54.7774 15.7255C54.5443 15.4924 54.2676 15.3075 53.963 15.1813C53.6585 15.0552 53.3321 14.9902 53.0024 14.9902C52.3367 14.9902 51.6982 15.2547 51.2274 15.7255C50.7567 16.1962 50.4922 16.8347 50.4922 17.5005C50.4922 18.1662 50.7567 18.8047 51.2274 19.2755L56.9774 25.0005L51.2274 30.7255C50.9943 30.9586 50.8094 31.2353 50.6833 31.5398C50.5571 31.8444 50.4922 32.1708 50.4922 32.5005C50.4922 33.1662 50.7567 33.8047 51.2274 34.2755C51.6982 34.7462 52.3367 35.0107 53.0024 35.0107C53.3321 35.0107 53.6585 34.9458 53.963 34.8196C54.2676 34.6935 54.5443 34.5086 54.7774 34.2755L60.5024 28.5255L66.2274 34.2755C66.6982 34.7462 67.3367 35.0107 68.0024 35.0107C68.6682 35.0107 69.3067 34.7462 69.7774 34.2755C70.2482 33.8047 70.5126 33.1662 70.5126 32.5005C70.5126 31.8347 70.2482 31.1962 69.7774 30.7255L64.0274 25.0005Z" fill="#E42413"/>
<path d="M28 95H13C11.6193 95 10.5 96.1193 10.5 97.5V107.5C10.5 108.881 11.6193 110 13 110H28C29.3807 110 30.5 108.881 30.5 107.5V97.5C30.5 96.1193 29.3807 95 28 95Z" fill="url(#paint6_linear_8441_14745)"/>
<path d="M23 105H18C17.337 105 16.7011 104.737 16.2322 104.268C15.7634 103.799 15.5 103.163 15.5 102.5C15.5 101.837 15.7634 101.201 16.2322 100.732C16.7011 100.263 17.337 100 18 100H23C23.663 100 24.2989 100.263 24.7678 100.732C25.2366 101.201 25.5 101.837 25.5 102.5C25.5 103.163 25.2366 103.799 24.7678 104.268C24.2989 104.737 23.663 105 23 105Z" fill="#F8BD30"/>
<path d="M43 110H38C37.337 110 36.7011 109.737 36.2322 109.268C35.7634 108.799 35.5 108.163 35.5 107.5C35.5 106.837 35.7634 106.201 36.2322 105.732C36.7011 105.263 37.337 105 38 105H43C43.663 105 44.2989 105.263 44.7678 105.732C45.2366 106.201 45.5 106.837 45.5 107.5C45.5 108.163 45.2366 108.799 44.7678 109.268C44.2989 109.737 43.663 110 43 110Z" fill="#E73C18"/>
<path d="M48 100H38C37.337 100 36.7011 99.7366 36.2322 99.2678C35.7634 98.7989 35.5 98.163 35.5 97.5C35.5 96.837 35.7634 96.2011 36.2322 95.7322C36.7011 95.2634 37.337 95 38 95H48C48.663 95 49.2989 95.2634 49.7678 95.7322C50.2366 96.2011 50.5 96.837 50.5 97.5C50.5 98.163 50.2366 98.7989 49.7678 99.2678C49.2989 99.7366 48.663 100 48 100Z" fill="#E73C18"/>
<defs>
<linearGradient id="paint0_linear_8441_14745" x1="14.25" y1="115.4" x2="14.25" y2="-5.0115e-08" gradientUnits="userSpaceOnUse">
<stop stop-color="#EC601E"/>
<stop offset="1" stop-color="#F8C031"/>
</linearGradient>
<linearGradient id="paint1_linear_8441_14745" x1="106.75" y1="115.4" x2="106.75" y2="-5.0115e-08" gradientUnits="userSpaceOnUse">
<stop stop-color="#EC601E"/>
<stop offset="1" stop-color="#F8C031"/>
</linearGradient>
<linearGradient id="paint2_linear_8441_14745" x1="60.5" y1="121" x2="60.5" y2="77.5002" gradientUnits="userSpaceOnUse">
<stop stop-color="#EE7021"/>
<stop offset="0.920242" stop-color="#F8C031"/>
</linearGradient>
<linearGradient id="paint3_linear_8441_14745" x1="60.5" y1="67.5" x2="60.5" y2="1.54743e-06" gradientUnits="userSpaceOnUse">
<stop stop-color="#54A5FF"/>
<stop offset="1" stop-color="#8AD3FE"/>
</linearGradient>
<linearGradient id="paint4_linear_8441_14745" x1="60.4996" y1="67.5" x2="60.4996" y2="20.852" gradientUnits="userSpaceOnUse">
<stop stop-color="#EC601E"/>
<stop offset="1" stop-color="#F8C031"/>
</linearGradient>
<linearGradient id="paint5_linear_8441_14745" x1="60.5" y1="53.4507" x2="60.5" y2="2.50072" gradientUnits="userSpaceOnUse">
<stop stop-color="#D3E6F5"/>
<stop offset="1" stop-color="#F0F7FC"/>
</linearGradient>
<linearGradient id="paint6_linear_8441_14745" x1="10.5" y1="102.5" x2="30.5" y2="102.5" gradientUnits="userSpaceOnUse">
<stop stop-color="#D3E6F5"/>
<stop offset="1" stop-color="#F0F7FC"/>
</linearGradient>
</defs>
</svg>
